<svg xmlns="http://www.w3.org/2000/svg" viewBox="3.90 -93.80 130.90 112.10" fill="currentColor">
<path transform="translate(0.00,0.00) scale(0.10000,-0.10000)" d="M550.00 708.00Q546.00 670.00 544.50 634.50Q543.00 599.00 543.00 580.00Q543.00 561.00 544.00 544.00Q545.00 527.00 546.00 516.00H523.00Q516.00 580.00 501.50 617.00Q487.00 654.00 458.50 669.50Q430.00 685.00 379.00 685.00H310.00Q278.00 685.00 261.50 679.50Q245.00 674.00 239.00 657.50Q233.00 641.00 233.00 606.00V102.00Q233.00 68.00 239.00 51.00Q245.00 34.00 261.50 28.50Q278.00 23.00 310.00 23.00H375.00Q432.00 23.00 465.50 41.00Q499.00 59.00 516.50 100.00Q534.00 141.00 543.00 212.00H566.00Q563.00 183.00 563.00 136.00Q563.00 116.00 564.50 78.00Q566.00 40.00 570.00 0.00Q519.00 2.00 455.00 2.50Q391.00 3.00 341.00 3.00Q318.00 3.00 282.00 3.00Q246.00 3.00 204.50 2.50Q163.00 2.00 120.50 1.50Q78.00 1.00 39.00 0.00V20.00Q73.00 22.00 90.00 28.00Q107.00 34.00 112.50 52.00Q118.00 70.00 118.00 106.00V602.00Q118.00 639.00 112.50 656.50Q107.00 674.00 89.50 680.50Q72.00 687.00 39.00 688.00V708.00Q78.00 707.00 120.50 706.50Q163.00 706.00 204.50 705.50Q246.00 705.00 282.00 705.00Q318.00 705.00 341.00 705.00Q387.00 705.00 445.50 705.50Q504.00 706.00 550.00 708.00ZM384.00 366.00Q384.00 366.00 384.00 356.00Q384.00 346.00 384.00 346.00H203.00Q203.00 346.00 203.00 356.00Q203.00 366.00 203.00 366.00ZM413.00 498.00Q409.00 441.00 409.50 411.00Q410.00 381.00 410.00 356.00Q410.00 331.00 411.00 301.00Q412.00 271.00 416.00 214.00H393.00Q388.00 247.00 380.00 277.50Q372.00 308.00 351.50 327.00Q331.00 346.00 288.00 346.00V366.00Q320.00 366.00 338.50 379.00Q357.00 392.00 367.00 413.00Q377.00 434.00 381.50 456.50Q386.00 479.00 390.00 498.00ZM325.00 -183.00Q298.00 -183.00 279.50 -167.00Q261.00 -151.00 261.00 -124.00Q261.00 -98.00 278.00 -81.00Q295.00 -64.00 325.00 -64.00Q355.00 -64.00 372.00 -81.50Q389.00 -99.00 389.00 -124.00Q389.00 -151.00 370.50 -167.00Q352.00 -183.00 325.00 -183.00Z"/>
<path transform="translate(12.10,0.00) scale(0.10000,-0.10000)" d="M89.00 929.00Q111.00 916.00 131.00 896.00Q151.00 876.00 180.00 848.50Q209.00 821.00 255.00 785.00L248.00 772.00Q196.00 796.00 158.00 809.00Q120.00 822.00 93.50 831.50Q67.00 841.00 45.00 853.00Q23.00 867.00 18.00 884.50Q13.00 902.00 21.00 917.00Q31.00 933.00 50.00 937.00Q69.00 941.00 89.00 929.00Z"/>
<path transform="translate(61.70,0.00) scale(0.10000,-0.10000)" d="M349.00 530.00Q378.00 530.00 398.50 518.00Q419.00 506.00 429.50 487.50Q440.00 469.00 440.00 446.00Q440.00 417.00 422.50 396.50Q405.00 376.00 376.00 376.00Q351.00 376.00 333.50 391.00Q316.00 406.00 316.00 432.00Q316.00 454.00 327.50 469.50Q339.00 485.00 354.00 494.00Q344.00 502.00 330.00 501.00Q303.00 500.00 280.00 483.50Q257.00 467.00 241.00 441.50Q225.00 416.00 216.00 387.00Q207.00 358.00 207.00 333.00V103.00Q207.00 54.00 234.00 37.50Q261.00 21.00 309.00 21.00V0.00Q286.00 1.00 243.50 2.50Q201.00 4.00 154.00 4.00Q118.00 4.00 82.00 2.50Q46.00 1.00 27.00 0.00V21.00Q66.00 21.00 82.50 36.00Q99.00 51.00 99.00 93.00V407.00Q99.00 452.00 84.00 473.50Q69.00 495.00 27.00 495.00V516.00Q59.00 513.00 89.00 513.00Q123.00 513.00 152.50 516.50Q182.00 520.00 207.00 527.00V412.00Q219.00 441.00 239.00 468.00Q259.00 495.00 287.00 512.50Q315.00 530.00 349.00 530.00Z"/>
<path transform="translate(106.90,0.00) scale(0.10000,-0.10000)" d="M207.00 527.00V93.00Q207.00 51.00 223.50 36.00Q240.00 21.00 279.00 21.00V0.00Q262.00 1.00 226.50 2.50Q191.00 4.00 154.00 4.00Q119.00 4.00 82.00 2.50Q45.00 1.00 27.00 0.00V21.00Q66.00 21.00 82.50 36.00Q99.00 51.00 99.00 93.00V407.00Q99.00 452.00 84.00 473.50Q69.00 495.00 27.00 495.00V516.00Q59.00 513.00 89.00 513.00Q123.00 513.00 152.50 516.50Q182.00 520.00 207.00 527.00ZM254.00 814.00Q267.00 803.00 268.50 785.00Q270.00 767.00 255.00 747.00Q239.00 727.00 217.00 709.00Q195.00 691.00 164.50 666.00Q134.00 641.00 93.00 599.00L82.00 608.00Q113.00 659.00 130.00 694.50Q147.00 730.00 159.00 756.00Q171.00 782.00 186.00 801.00Q201.00 821.00 220.50 823.50Q240.00 826.00 254.00 814.00Z"/>
</svg>